<svg xmlns="http://www.w3.org/2000/svg" width="1280" height="620" viewBox="0 0 1280 620" role="img" aria-labelledby="title desc">
  <title id="title">A2O system overview</title>
  <desc id="desc">A visual overview of A2O turning kanban tasks and project inputs into AI-assisted work applied to a Git repository.</desc>
  <defs>
    <linearGradient id="bg" x1="0" y1="0" x2="1" y2="1">
      <stop offset="0" stop-color="#f7fbf9"/>
      <stop offset="0.55" stop-color="#eef7f4"/>
      <stop offset="1" stop-color="#f8fafc"/>
    </linearGradient>
    <linearGradient id="engine" x1="0" y1="0" x2="1" y2="1">
      <stop offset="0" stop-color="#0f766e"/>
      <stop offset="1" stop-color="#155e75"/>
    </linearGradient>
    <linearGradient id="agent" x1="0" y1="0" x2="1" y2="1">
      <stop offset="0" stop-color="#2563eb"/>
      <stop offset="1" stop-color="#0e7490"/>
    </linearGradient>
    <linearGradient id="repo" x1="0" y1="0" x2="1" y2="1">
      <stop offset="0" stop-color="#166534"/>
      <stop offset="1" stop-color="#15803d"/>
    </linearGradient>
    <filter id="shadow" x="-20%" y="-20%" width="140%" height="140%">
      <feDropShadow dx="0" dy="8" stdDeviation="12" flood-color="#0f172a" flood-opacity="0.12"/>
    </filter>
    <marker id="arrow" viewBox="0 0 10 10" refX="9" refY="5" markerWidth="8" markerHeight="8" orient="auto-start-reverse">
      <path d="M 0 0 L 10 5 L 0 10 z" fill="#334155"/>
    </marker>
    <marker id="arrow-teal" viewBox="0 0 10 10" refX="9" refY="5" markerWidth="8" markerHeight="8" orient="auto-start-reverse">
      <path d="M 0 0 L 10 5 L 0 10 z" fill="#0f766e"/>
    </marker>
    <style>
      text { font-family: Inter, ui-sans-serif, system-ui, -apple-system, BlinkMacSystemFont, "Segoe UI", sans-serif; }
      .small { font-size: 18px; fill: #475569; }
      .body { font-size: 21px; fill: #334155; font-weight: 600; }
      .label { font-size: 18px; fill: #ffffff; font-weight: 700; letter-spacing: 0; }
      .muted { font-size: 16px; fill: #64748b; }
      .panel-title { font-size: 24px; fill: #0f172a; font-weight: 800; letter-spacing: 0; }
      .white-title { font-size: 28px; fill: #ffffff; font-weight: 850; letter-spacing: 0; }
      .white-body { font-size: 17px; fill: #dff7f3; font-weight: 600; }
      .line { stroke: #334155; stroke-width: 3.5; fill: none; marker-end: url(#arrow); }
      .teal-line { stroke: #0f766e; stroke-width: 3.5; fill: none; marker-end: url(#arrow-teal); }
      .dash { stroke: #64748b; stroke-width: 3; fill: none; stroke-dasharray: 8 8; marker-end: url(#arrow); }
    </style>
  </defs>

  <rect width="1280" height="620" fill="url(#bg)"/>
  <rect x="34" y="34" width="1212" height="552" rx="26" fill="#ffffff" opacity="0.72"/>

  <text x="78" y="86" class="panel-title">A2O turns kanban tasks into AI-assisted product changes</text>
  <text x="78" y="118" class="muted">Agentic AI Orchestrator connects product intent, project context, AI execution, and repository results.</text>

  <g filter="url(#shadow)">
    <rect x="70" y="190" width="210" height="110" rx="22" fill="#ffffff" stroke="#cbd5e1" stroke-width="2"/>
    <circle cx="112" cy="234" r="20" fill="#0f766e"/>
    <path d="M105 234 h14 M112 227 v14" stroke="#ffffff" stroke-width="4" stroke-linecap="round"/>
    <text x="145" y="229" class="body">User</text>
    <text x="145" y="258" class="small">creates a task</text>
  </g>

  <g filter="url(#shadow)">
    <path d="M100 368 h146 q18 0 18 18 v74 q0 18 -18 18 h-146 q-18 0 -18 -18 v-74 q0 -18 18 -18 z" fill="#fff7ed" stroke="#fed7aa" stroke-width="2"/>
    <path d="M108 392 h66 m-66 23 h118 m-118 23 h92" stroke="#c2410c" stroke-width="5" stroke-linecap="round"/>
    <text x="100" y="518" class="body">Project config</text>
    <text x="100" y="546" class="small">AI skill files</text>
  </g>

  <g filter="url(#shadow)">
    <rect x="380" y="160" width="370" height="330" rx="28" fill="url(#engine)"/>
    <text x="416" y="210" class="white-title">A2O Engine</text>
    <text x="416" y="240" class="white-body">owns work selection and task state</text>

    <rect x="418" y="276" width="120" height="58" rx="18" fill="#ecfeff" opacity="0.96"/>
    <text x="440" y="312" class="body">Kanban</text>

    <rect x="566" y="276" width="138" height="58" rx="18" fill="#dcfce7" opacity="0.96"/>
    <text x="586" y="312" class="body">Scheduler</text>

    <rect x="418" y="370" width="286" height="70" rx="18" fill="#f8fafc" opacity="0.96"/>
    <text x="446" y="398" class="body">Prepare AI execution job</text>
    <text x="446" y="424" class="muted">task + project inputs</text>
  </g>

  <g filter="url(#shadow)">
    <rect x="790" y="218" width="190" height="94" rx="24" fill="url(#agent)"/>
    <text x="833" y="258" class="label">a2o-agent</text>
    <text x="826" y="286" class="white-body">runs the job</text>
  </g>

  <g filter="url(#shadow)">
    <path d="M1110 213 c-35 0 -58 20 -63 47 c-28 5 -48 27 -48 55 c0 34 28 58 66 58 h130 c40 0 68 -27 68 -61 c0 -30 -22 -53 -54 -59 c-9 -24 -44 -40 -99 -40 z" fill="#fefce8" stroke="#fde68a" stroke-width="3"/>
    <text x="1072" y="303" class="body">Generative AI</text>
  </g>

  <g filter="url(#shadow)">
    <path d="M861 420 c0 -25 58 -45 130 -45 s130 20 130 45 v88 c0 25 -58 45 -130 45 s-130 -20 -130 -45 z" fill="url(#repo)"/>
    <ellipse cx="991" cy="420" rx="130" ry="45" fill="#22c55e"/>
    <path d="M861 420 c0 25 58 45 130 45 s130 -20 130 -45" fill="none" stroke="#bbf7d0" stroke-width="3" opacity="0.72"/>
    <text x="917" y="431" class="label">Git repository</text>
  </g>

  <path class="line" d="M280 244 C316 244 330 244 365 244"/>
  <path class="dash" d="M246 421 C302 404 334 386 381 352"/>
  <path class="teal-line" d="M704 405 C760 392 792 334 835 286"/>
  <path class="line" d="M980 264 C1006 263 1026 263 1060 264"/>
  <path class="line" d="M1162 374 C1139 399 1106 411 1051 425"/>
  <path class="teal-line" d="M936 313 C930 344 934 365 960 383"/>
  <path class="line" d="M790 263 C776 258 763 250 750 232"/>

  <g>
    <rect x="304" y="214" width="86" height="34" rx="17" fill="#ffffff" stroke="#cbd5e1"/>
    <text x="322" y="237" class="muted">task</text>
    <rect x="286" y="363" width="126" height="34" rx="17" fill="#ffffff" stroke="#cbd5e1"/>
    <text x="304" y="386" class="muted">project inputs</text>
    <rect x="778" y="332" width="118" height="34" rx="17" fill="#ffffff" stroke="#99f6e4"/>
    <text x="795" y="355" class="muted">execution job</text>
    <rect x="1032" y="386" width="84" height="34" rx="17" fill="#ffffff" stroke="#cbd5e1"/>
    <text x="1051" y="409" class="muted">result</text>
  </g>
</svg>
